Coordinates
version=1
nRows=73
nColumns=8
inDegrees=no

Units are S.I. units (second, meters, Newtons, ...)
Angles are in radian.

endheader
time	Shoulder_Right1	Shoulder_Right2	Shoulder_Right3	Elbow_Right1	Wrist_Right1	Wrist_Right2	Wrist_Right3
      0.00509000	     -0.39943300	      0.23033500	      0.24345200	      1.31780000	     -0.52661100	     -0.24733500	     -0.74689300
      0.00510000	     -0.39940600	      0.23046300	      0.24370600	      1.31777000	     -0.52675100	     -0.24742200	     -0.74745500
      0.00511000	     -0.39933500	      0.23030800	      0.24332600	      1.31788000	     -0.52679500	     -0.24717200	     -0.74714900
      0.00512000	     -0.39931000	      0.23032800	      0.24349100	      1.31774000	     -0.52688200	     -0.24733900	     -0.74712300
      0.00513000	     -0.39926600	      0.23053800	      0.24385200	      1.31779000	     -0.52680400	     -0.24743300	     -0.74732700
      0.00514000	     -0.39916900	      0.23046500	      0.24359100	      1.31777000	     -0.52677500	     -0.24714800	     -0.74832500
      0.00515000	     -0.39916100	      0.23048900	      0.24375400	      1.31767000	     -0.52678700	     -0.24737000	     -0.74697900
      0.00516000	     -0.39915000	      0.23051500	      0.24372200	      1.31772000	     -0.52673900	     -0.24737400	     -0.74788800
      0.00517000	     -0.39909600	      0.23048700	      0.24366500	      1.31783000	     -0.52715700	     -0.24707800	     -0.74744800
      0.00518000	     -0.39907200	      0.23048800	      0.24376200	      1.31767000	     -0.52702000	     -0.24722500	     -0.74762200
      0.00519000	     -0.39897300	      0.23063400	      0.24383400	      1.31791000	     -0.52731900	     -0.24711300	     -0.74784600
      0.00520000	     -0.39896300	      0.23038200	      0.24355500	      1.31788000	     -0.52744000	     -0.24718000	     -0.74827100
      0.00521000	     -0.39897100	      0.23046900	      0.24379000	      1.31774000	     -0.52703300	     -0.24731900	     -0.74757800
      0.00522000	     -0.39880500	      0.23054300	      0.24377600	      1.31794000	     -0.52737000	     -0.24715000	     -0.74753000
      0.00523000	     -0.39895500	      0.23035300	      0.24371200	      1.31771000	     -0.52721800	     -0.24735400	     -0.74694600
      0.00524000	     -0.39881600	      0.23057200	      0.24379200	      1.31802000	     -0.52747200	     -0.24717400	     -0.74892900
      0.00525000	     -0.39892700	      0.23036100	      0.24359300	      1.31785000	     -0.52734300	     -0.24707600	     -0.74801400
      0.00526000	     -0.39881800	      0.23057800	      0.24389100	      1.31796000	     -0.52753600	     -0.24727800	     -0.74905100
      0.00527000	     -0.39886300	      0.23043400	      0.24374100	      1.31773000	     -0.52723100	     -0.24724100	     -0.74784000
      0.00528000	     -0.39875600	      0.23047400	      0.24371200	      1.31797000	     -0.52776200	     -0.24716000	     -0.74886200
      0.00529000	     -0.39880200	      0.23062500	      0.24403900	      1.31790000	     -0.52730300	     -0.24743300	     -0.74801500
      0.00530000	     -0.39870900	      0.23054600	      0.24377600	      1.31810000	     -0.52760900	     -0.24715200	     -0.74800600
      0.00531000	     -0.39878700	      0.23053000	      0.24386200	      1.31776000	     -0.52740600	     -0.24724800	     -0.74729800
      0.00532000	     -0.39877100	      0.23066800	      0.24404200	      1.31800000	     -0.52782200	     -0.24733100	     -0.74842100
      0.00533000	     -0.39875900	      0.23069500	      0.24390600	      1.31803000	     -0.52792600	     -0.24703400	     -0.74995300
      0.00534000	     -0.39877500	      0.23071800	      0.24439300	      1.31766000	     -0.52770100	     -0.24800100	     -0.75017900
      0.00535000	     -0.39872200	      0.23078200	      0.24402700	      1.31808000	     -0.52788900	     -0.24721400	     -0.74864300
      0.00536000	     -0.39877200	      0.23060300	      0.24386200	      1.31796000	     -0.52798900	     -0.24713200	     -0.74857500
      0.00537000	     -0.39882200	      0.23073500	      0.24424200	      1.31792000	     -0.52777400	     -0.24756200	     -0.74842400
      0.00538000	     -0.39880200	      0.23054600	      0.24379800	      1.31785000	     -0.52788500	     -0.24725400	     -0.74798900
      0.00539000	     -0.39881100	      0.23068600	      0.24407900	      1.31780000	     -0.52782300	     -0.24742600	     -0.74670400
      0.00540000	     -0.39883400	      0.23087500	      0.24432700	      1.31800000	     -0.52846700	     -0.24733600	     -0.74801200
      0.00541000	     -0.39891200	      0.23069500	      0.24405000	      1.31789000	     -0.52843500	     -0.24724800	     -0.74786900
      0.00542000	     -0.39891100	      0.23090100	      0.24444100	      1.31788000	     -0.52860600	     -0.24739700	     -0.74697400
      0.00543000	     -0.39893700	      0.23093200	      0.24438600	      1.31808000	     -0.52908100	     -0.24718500	     -0.74741800
      0.00544000	     -0.39901900	      0.23082200	      0.24429700	      1.31794000	     -0.52924600	     -0.24721600	     -0.74715600
      0.00545000	     -0.39912600	      0.23095600	      0.24449500	      1.31793000	     -0.52910800	     -0.24718500	     -0.74779000
      0.00546000	     -0.39912200	      0.23102800	      0.24448200	      1.31804000	     -0.52962100	     -0.24696100	     -0.74752200
      0.00547000	     -0.39922400	      0.23104100	      0.24452800	      1.31808000	     -0.52999800	     -0.24682400	     -0.74730600
      0.00548000	     -0.39935300	      0.23117400	      0.24463400	      1.31826000	     -0.53053200	     -0.24670500	     -0.74857200
      0.00549000	     -0.39944000	      0.23105900	      0.24451100	      1.31826000	     -0.53080000	     -0.24646400	     -0.74704900
      0.00550000	     -0.39959000	      0.23124200	      0.24468000	      1.31819000	     -0.53134400	     -0.24609300	     -0.74914000
      0.00551000	     -0.39977000	      0.23107400	      0.24434600	      1.31820000	     -0.53185800	     -0.24568500	     -0.74821200
      0.00552000	     -0.39986100	      0.23102700	      0.24413100	      1.31831000	     -0.53235300	     -0.24528900	     -0.74872000
      0.00553000	     -0.40014100	      0.23113300	      0.24445200	      1.31836000	     -0.53286600	     -0.24512200	     -0.74861000
      0.00554000	     -0.40016800	      0.23128000	      0.24435000	      1.31848000	     -0.53345400	     -0.24460300	     -0.74933300
      0.00555000	     -0.40054000	      0.23123800	      0.24422000	      1.31845000	     -0.53417600	     -0.24425200	     -0.74834200
      0.00556000	     -0.40077700	      0.23137800	      0.24428600	      1.31871000	     -0.53507500	     -0.24381500	     -0.74938800
      0.00557000	     -0.40106000	      0.23132300	      0.24407600	      1.31863000	     -0.53572600	     -0.24313000	     -0.74901600
      0.00558000	     -0.40130100	      0.23154600	      0.24427300	      1.31905000	     -0.53695800	     -0.24296900	     -0.75011500
      0.00559000	     -0.40161800	      0.23140000	      0.24368500	      1.31931000	     -0.53807000	     -0.24201500	     -0.75057700
      0.00560000	     -0.40205600	      0.23145400	      0.24374300	      1.31932000	     -0.53940700	     -0.24140500	     -0.75250100
      0.00561000	     -0.40248500	      0.23164000	      0.24376700	      1.31962000	     -0.54035300	     -0.24078500	     -0.75210000
      0.00562000	     -0.40267300	      0.23172400	      0.24323700	      1.32030000	     -0.54191400	     -0.23949400	     -0.75287100
      0.00563000	     -0.40325200	      0.23171000	      0.24304100	      1.32026000	     -0.54320200	     -0.23858500	     -0.75243100
      0.00564000	     -0.40368800	      0.23203400	      0.24305300	      1.32082000	     -0.54472100	     -0.23772100	     -0.75473400
      0.00565000	     -0.40410300	      0.23214800	      0.24244700	      1.32135000	     -0.54632600	     -0.23597600	     -0.75453500
      0.00566000	     -0.40471000	      0.23232700	      0.24272900	      1.32151000	     -0.54809200	     -0.23607400	     -0.75811200
      0.00567000	     -0.40522800	      0.23233100	      0.24193500	      1.32226000	     -0.54946700	     -0.23407100	     -0.75500200
      0.00568000	     -0.40583200	      0.23231400	      0.24166700	      1.32262000	     -0.55112900	     -0.23314500	     -0.75567200
      0.00569000	     -0.40650000	      0.23258600	      0.24165500	      1.32345000	     -0.55345100	     -0.23255900	     -0.76158200
      0.00570000	     -0.40712300	      0.23276500	      0.24060800	      1.32445000	     -0.55548900	     -0.22989700	     -0.75611400
      0.00571000	     -0.40798300	      0.23280800	      0.24015400	      1.32502000	     -0.55756100	     -0.22852000	     -0.75637600
      0.00572000	     -0.40869700	      0.23332300	      0.24036200	      1.32619000	     -0.55988300	     -0.22767300	     -0.75657600
      0.00573000	     -0.40951300	      0.23340000	      0.23968800	      1.32727000	     -0.56165500	     -0.22595100	     -0.75872300
      0.00574000	     -0.41029700	      0.23389900	      0.23943900	      1.32837000	     -0.56405800	     -0.22425400	     -0.75948600
      0.00575000	     -0.41124700	      0.23406100	      0.23880900	      1.32964000	     -0.56590300	     -0.22243200	     -0.76016100
      0.00576000	     -0.41204700	      0.23423200	      0.23811400	      1.33105000	     -0.56852000	     -0.22079500	     -0.76069400
      0.00577000	     -0.41313000	      0.23483000	      0.23825600	      1.33248000	     -0.57029700	     -0.21950700	     -0.76253600
      0.00578000	     -0.41391300	      0.23516800	      0.23749500	      1.33427000	     -0.57257800	     -0.21727600	     -0.76334900
      0.00579000	     -0.41513200	      0.23526900	      0.23724600	      1.33509000	     -0.57456400	     -0.21712100	     -0.76783700
      0.00580000	     -0.41619200	      0.23619700	      0.23743800	      1.33722000	     -0.57701000	     -0.21524200	     -0.77121500
      0.00581000	     -0.41728700	      0.23649900	      0.23688100	      1.33910000	     -0.57892800	     -0.21423100	     -0.77216600
